<?xml version="1.0" encoding="UTF-8"?>
<svg id="Layer_1" data-name="Layer 1" xmlns="http://www.w3.org/2000/svg" viewBox="0 0 637.64 517.49">
  <defs>
    <style>
      .cls-1 {
        stroke-width: 0px;
      }
    </style>
  </defs>
  <g>
    <path class="cls-1" d="M541.56,170.84c0-16.86-33.22-25.29-99.64-25.29H144.79c-23.2,0-42-18.8-42-42h0c0-23.2,18.8-42,42-42h296.66c88.27,0,148.03,21.78,179.26,65.34,10.41,14.65,15.61,29.69,15.61,45.1s-5.02,29.69-15.03,43.95c-30.85,42.41-90.79,63.61-179.84,63.61h-212.38c-23.22,0-42.05,18.83-42.05,42.05v23.33c0,23.2-18.8,42-42,42h0c-23.2,0-42-18.8-42-42v-107.43c0-11.49,4.15-21.35,12.45-29.6s18.25-12.36,29.84-12.36h296.61c66.42,0,99.64-8.23,99.64-24.71Z"/>
    <path class="cls-1" d="M144.12,406.2c12.37,0,22.62,3.97,30.74,11.89,8.12,7.93,12.18,18.27,12.18,31.03s-4.06,22.53-12.18,30.45c-8.12,7.93-18.37,11.89-30.74,11.89s-23.2-3.96-31.32-11.89c-8.12-7.92-12.18-18.07-12.18-30.45s4.06-23.1,12.18-31.03c8.12-7.92,18.56-11.89,31.32-11.89"/>
  </g>
  <g>
    <path class="cls-1" d="M226.02,343.55c14.33,5.81,40,19,50,25-3.77,3.06-14.72,11.9-18,16-26.5,33.15-1.9,66.22-21,96-28.05,43.74-131.77,51.39-167,8-26.19-32.26-15.51-93.93-11-120,3.38-19.47,7.56-37.79,8-52,28-5,85-3,159,27Z"/>
    <path class="cls-1" d="M556.02,329.55c-39.21,26.86-96.84,42.2-150,34-33.24-5.13-56.44-18.19-94-9-8.39,2.05-22.93,5.61-36.61,14.44-19.86-11.89-59.22-30.68-103.67-41.54-9.51-2.32-27.21-6.23-49.89-8.49-17.23-1.72-40.85-2.85-54.61-2.25-.17-3.19-.57-6.55-1.22-10.16-4.84-26.72-18.56-37.3-34-63C26.25,233.95.9,191.77.02,142.55-.84,94.8,21.25,35.08,68.02,11.55c10.53-5.3,20.16-7.67,29.04-9.18,70.61-12,131.51,24.53,180.96,42.18,129.67,46.29,183.05-36.33,278,21,10.47,6.32,69.41,41.91,80,106,11.18,67.69-37.87,129.14-80,158Z"/>
  </g>
</svg>